<svg version="1.2" xmlns="http://www.w3.org/2000/svg" viewBox="0 0 1000 1000" width="1000" height="1000">
	<title>boat-svg</title>
	<style>
		.s0 { fill: #231f20 } 
	</style>
	<path id="Layer" class="s0" d="m504.6 774.1c0 11.4-9.3 20.6-20.7 20.6-11.4 0-20.7-9.2-20.7-20.6 0-11.5 9.3-20.7 20.7-20.7 11.4 0 20.7 9.2 20.7 20.7z"/>
	<path id="Layer" fill-rule="evenodd" class="s0" d="m395 848.2h-0.5c-8.5 0-15.3-6.8-15.3-15.2v-25.2c0-9.6 2.8-18.9 7.7-26.7 4.9-7.9 12-14.4 20.7-18.6 14.3-6.9 24.5-20.1 27.5-35.7 14.2-73.4 21.4-147.8 21.7-222.2l111.2 111.2-17.8 192.1c-0.7 7.2-5.1 13.5-11.7 16.5l-5.7 2.7c-21.7 10.1-46 13.3-69.6 9.3l-53-9.2v5.8c0 8.4-6.8 15.2-15.2 15.2zm88.9-111.8c-20.8 0-37.7 16.8-37.7 37.7 0 20.8 16.9 37.6 37.7 37.6 20.8 0 37.7-16.8 37.7-37.6 0-20.9-16.9-37.7-37.7-37.7z"/>
	<path id="Layer" class="s0" d="m394 151.8c8.9-0.4 16.2 6.7 16.2 15.5v5.5l46.8-8.1c27.6-4.8 56.1-1 81.5 10.9 6.6 3 11 9.4 11.7 16.6l18.4 197.5c4.7 51.1 6.1 102.4 4.3 153.6l-118.4-118.4c-3.2-50.8-9.7-101.5-19.4-151.7-3-15.6-13.2-28.8-27.5-35.7-17.3-8.4-28.4-26-28.4-45.3v-19.4-5.1c0-8.3 6.4-15.5 14.8-15.9z"/>
	<path id="Layer" class="s0" d="m413.9 408.4l186.8 186.8c4.6-1.1 9.6 0 13.3 3.3l80 70.6c6.4 5.7 6.7 15.6 0.7 21.7l-13.1 13c-6 6-15.9 5.7-21.6-0.7l-70.6-79.9c-3.4-3.8-4.4-8.8-3.3-13.4l-186.8-186.8c-4.6 1.1-9.6 0.1-13.3-3.3l-80-70.6c-6.4-5.7-6.7-15.6-0.7-21.6l13.1-13c6-6.1 15.9-5.8 21.6 0.6l70.6 80c3.4 3.7 4.4 8.7 3.3 13.3z"/>
</svg>