<svg version="1.2" xmlns="http://www.w3.org/2000/svg" viewBox="0 0 95 299" width="95" height="299">
	<title>carrier-svg</title>
	<style>
		.s0 { fill: #000000 } 
	</style>
	<g id="Layer">
		<path id="Layer" class="s0" d="m6.5 84.1c1.3-1.2 12.4-2.1 24.7-2 6.5 0 9.8-0.3 9.8-1 0-0.6-0.7-1.1-1.5-1.1-0.9 0-2.1-1.2-2.8-2.8-0.6-1.5-1.7-3.1-2.4-3.5-0.8-0.5-1.3-2.9-1.3-5.9v-5l4 0.4c2.7 0.2 4 0 4-0.9 0-1.1 4.8-2 14.5-2.6l4-0.2 0.3-25.8c0.1-14.2 0.6-25.7 1-25.5 0.4 0.2 3.8 1.9 7.7 3.9 6.6 3.4 13.4 5.9 19.8 7.3l2.7 0.6-0.2 128.3-0.3 128.2-2.2 4.2c-2.6 4.7-6.3 7.7-12.4 9.8-8.2 2.9-7.9 3.4-7.9-13 0-12.2-0.2-14.5-1.5-14.5-0.9 0-1.5 0.9-1.5 2.5 0 2-0.5 2.5-2.5 2.5h-2.5v-66-66h-7-7v-11.5-11.5h-3.5c-2.3 0-3.8-0.6-4.2-1.6-0.4-1.2-1.7-1.5-5.7-1.2l-5.1 0.3v-6.5-6.5l5.2-0.3c3.6-0.2 5.3-0.7 5.3-1.6 0-1.4-9.8-5.6-13-5.6-1 0-2.1-0.7-2.4-1.6-0.3-0.8-1-1.3-1.5-1-0.5 0.3-1.2-0.1-1.5-1-0.4-1.1-1.8-1.5-5.3-1.4-2.7 0.1-5.7 0.1-6.8 0.1-1.2-0.1-1.5-0.4-1-1z"/>
	</g>
</svg>