<svg version="1.2" xmlns="http://www.w3.org/2000/svg" viewBox="0 0 69 153" width="69" height="153">
	<title>destroyer-svg</title>
	<style>
		.s0 { fill: #000000 } 
	</style>
	<g id="Layer">
		<path id="Layer" class="s0" d="m18 95.5c0-1.9 0.4-3.6 0.8-3.9 0.5-0.3 4.6-1.6 9.1-2.9 4.5-1.3 8.2-2.8 8.2-3.3 0-0.5-2.3-1.6-5.3-2.5l-5.3-1.7 0.3-4.3c0.2-2.4 0.4-4.5 0.6-4.6 0.2-0.2 2.3-0.7 4.7-1.1l4.4-0.7 0.3-5.8c0.2-3.5-0.1-5.7-0.8-5.7-0.5 0-1 0.8-1.1 1.7 0 1.5-0.2 1.5-0.9-0.2-0.7-1.6-0.9-1.7-0.9-0.3-0.1 0.9-0.5 1.9-0.9 2.2-0.5 0.3-0.7-0.8-0.4-2.3 0.2-1.6-0.1-3.2-0.7-3.5-1.2-0.8-1.5-4.5-0.5-7 0.4-0.9 1.8-1.6 3.5-1.6 2.6 0 2.8-0.3 3.1-4.7 0.3-4.9 2.8-7.5 2.8-2.9 0 2.1 0.5 2.6 2.5 2.6 2.4 0 2.5-0.2 2.5-7.5 0-7.3-0.1-7.5-2.4-7.5-3.4 0-3.9-1.2-3-7.3 0.6-4.4 0.8-4.8 1.5-2.7 0.6 2.1 0.7 2.2 0.9 0.5 0.1-1.1 0.4-1.4 0.7-0.8 1.1 2.8 2.3 1.1 2.3-3.1 0-2.9 0.6-5.1 1.8-6.2 1.6-1.7 1.7-1.6 2.6 0.9 0.8 2.2 1.6 2.7 4.2 2.7 2.7 0 3.2 0.4 3.8 3.1 0.3 1.7 0.6 29.3 0.6 61.4v58.2l-8 6.1c-4.5 3.4-8.3 6.2-8.6 6.2-0.3 0-0.2-4.7 0.2-10.5 0.6-9.3 0.5-10.5-0.9-10.5-1 0-2 1.3-2.6 3.2l-0.9 3.3-0.1-3c-0.1-1.7-0.6-3.6-1.2-4.2-0.7-0.7-0.9-2.3-0.5-3.7 0.5-2.2 1.2-2.6 4-2.6 3.2 0 3.5-0.2 4.1-4.1 0.4-2.2 0.4-4.3 0-4.7-0.3-0.4-4.8-1.2-9.8-1.7l-9.2-1-0.3-3.7c-0.3-3.1-0.8-3.9-2.8-4.4-1.9-0.5-2.4-1.3-2.4-3.9z"/>
	</g>
</svg>