<svg version="1.2" xmlns="http://www.w3.org/2000/svg" viewBox="0 0 299 95" width="299" height="95">
	<title>carrier-svg</title>
	<style>
		.s0 { fill: #000000 } 
	</style>
	<path id="Layer" class="s0" d="m214.9 6.5c1.2 1.3 2.1 12.4 2 24.7 0 6.5 0.3 9.8 1 9.8 0.6 0 1.1-0.7 1.1-1.5 0-0.9 1.2-2.1 2.8-2.8 1.5-0.6 3.1-1.7 3.5-2.4 0.5-0.8 2.9-1.3 5.9-1.3h5l-0.4 4c-0.2 2.7 0 4 0.9 4 1.1 0 2 4.8 2.6 14.5l0.2 4 25.8 0.3c14.2 0.1 25.7 0.6 25.5 1-0.2 0.4-1.9 3.8-3.9 7.7-3.4 6.6-5.9 13.4-7.3 19.8l-0.6 2.7-128.3-0.2-128.2-0.3-4.2-2.2c-4.7-2.6-7.7-6.3-9.8-12.4-2.9-8.2-3.4-7.9 13-7.9 12.2 0 14.5-0.2 14.5-1.5 0-0.9-0.9-1.5-2.5-1.5-2 0-2.5-0.5-2.5-2.5v-2.5h66 66v-7-7h11.5 11.5v-3.5c0-2.3 0.6-3.8 1.6-4.2 1.2-0.4 1.5-1.7 1.2-5.7l-0.3-5.1h6.5 6.5l0.3 5.2c0.2 3.6 0.7 5.3 1.6 5.3 1.4 0 5.6-9.8 5.6-13 0-1 0.7-2.1 1.6-2.4 0.8-0.3 1.3-1 1-1.5-0.3-0.5 0.1-1.2 1-1.5 1.1-0.4 1.5-1.8 1.4-5.3-0.1-2.7-0.1-5.7-0.1-6.8 0.1-1.2 0.4-1.5 1-1z"/>
</svg>