<svg version="1.2" xmlns="http://www.w3.org/2000/svg" viewBox="0 0 60 112" width="60" height="112">
	<title>patrol-svg</title>
	<style>
		.s0 { fill: #000000 } 
	</style>
	<g id="Layer">
		<path id="Layer" class="s0" d="m6.2 50.8c0.3-0.9 3.4-1.1 10.8-0.9 9.4 0.2 10.2 0.1 8.7-1.3-0.8-0.9-2.9-1.6-4.6-1.6-3.9 0-4.5-1.1-2.9-6.2l1.3-4.3 0.6 3 0.7 3 0.1-2.8c0.1-1.7 0.7-2.7 1.6-2.7 2.2 0 2-7.9-0.3-9.6-1.5-1.2-1.5-1.3-0.1-1.4 0.9 0 1.9-0.9 2.2-1.9 0.3-1.4 1.1-1.8 2.4-1.5 1.1 0.3 3.9 0.1 6.2-0.6l4.1-1.1v-6c0-5.1 0.3-6 1.6-5.5 3 1.2 15.1 8.5 16.2 9.9 0.9 1.1 1.2 11.6 1 40.3l-0.3 38.9-6.5 1.7c-3.6 0.9-8.4 1.7-10.8 1.7l-4.2 0.1v-16.5c0-11.6-0.3-16.5-1.1-16.5-0.7 0-2.2-1.1-3.5-2.6-2.8-3-3.4-10.1-0.9-11 0.8-0.4 1.5-1.3 1.5-2.1 0-1.2-2-1.4-11.3-1.3-6.1 0.1-11.6 0.1-12 0.1-0.5-0.1-0.7-0.6-0.5-1.3z"/>
	</g>
</svg>